<svg xmlns="http://www.w3.org/2000/svg" xmlns:xlink="http://www.w3.org/1999/xlink" width="148" height="39" viewBox="0 0 148 39">
    <defs>
        <path id="vi786u8hka" d="M0 0.262L11.872 0.262 11.872 17.953 0 17.953z"/>
        <path id="ka879ohr2c" d="M0 0.118L8.906 0.118 8.906 37.538 0 37.538z"/>
    </defs>
    <g fill="none" fill-rule="evenodd">
        <g>
            <g>
                <path fill="#F0BE43" fill-rule="nonzero" d="M42.227 11.888c.757-2.055 4.18-.972 3.339 1.139l-4.854 11.828c-1.066 2.666-4.152 2.61-5.162.028l-4.742-11.69c-.87-2.36 2.806-3.388 3.535-1.25l3.9 10.497 3.984-10.552zM47.549 22.644c1.15 0 2.104.972 2.104 2.11 0 1.139-.954 2.083-2.104 2.083-1.178 0-2.132-.944-2.132-2.083 0-1.138.954-2.11 2.132-2.11M57.488 14.165v11.023c0 1-.87 1.5-1.795 1.5-.954 0-1.852-.5-1.852-1.5V14.165h-1.206c-.954 0-1.431-.75-1.431-1.583 0-.778.449-1.5 1.403-1.5h1.234V9.75c0-3.916 2.188-5.582 5.134-5.582.982 0 1.824.14 2.525.334 1.936.527 1.179 3.443-.533 2.999-.505-.139-.982-.223-1.459-.223-1.515 0-2.02.861-2.02 2.555v1.25h2.974c.982 0 1.487.75 1.487 1.555 0 .805-.505 1.527-1.459 1.527h-3.002zM68.457 12.36v.916c1.066-1.666 2.918-2.471 4.32-2.471.955 0 1.88.194 2.386.638.308.25.533.778.533 1.278.028 1.388-.898 2.166-1.992 1.777-.393-.139-1.067-.222-1.628-.222-1.655 0-2.974.722-3.619 2.221v8.691c0 1-.87 1.5-1.795 1.5-.982 0-1.852-.5-1.852-1.5V12.36c0-.972.87-1.5 1.852-1.5.925 0 1.795.528 1.795 1.5M77.378 12.332c0-.972.87-1.5 1.824-1.5.925 0 1.795.528 1.795 1.5v12.856c0 1-.897 1.5-1.824 1.5-.953 0-1.795-.5-1.795-1.5V12.332zm1.795-7.97c1.179 0 2.133.917 2.133 2.083 0 1.139-.954 2.028-2.133 2.028-1.206 0-2.103-.889-2.103-2.028 0-1.166.897-2.082 2.103-2.082zM87.814 17.025h6.93c-.112-2.083-1.571-3.194-3.423-3.194-1.571 0-3.17 1.084-3.507 3.194m10.493.36c0 1.584-.477 2.472-2.806 2.472h-7.743c.168 2.499 1.851 3.832 4.096 3.832 1.824 0 3.086-.528 3.928-1.055 1.543-.944 3.058 1.305 1.57 2.526-.897.723-2.945 1.611-5.582 1.611-4.713 0-7.855-3.054-7.855-8.163 0-5.248 3.73-7.859 7.49-7.859 4.124 0 6.902 2.999 6.902 6.637M111.52 16.803c0-1.666-1.122-2.777-3.114-2.777-1.543 0-2.806.805-3.507 2.749v8.413c0 1-.87 1.5-1.796 1.5-.954 0-1.823-.5-1.823-1.5V12.332c0-.971.87-1.5 1.823-1.5.898 0 1.796.529 1.796 1.5v.694c1.178-1.471 2.974-2.193 4.741-2.193 2.918 0 5.5 1.777 5.5 5.303v9.052c0 1-.899 1.5-1.825 1.5-.925 0-1.795-.5-1.795-1.5v-8.385zM129.25 20.357v-3.249c-.448-2.193-2.216-3.054-3.59-3.054-2.16 0-3.816 1.527-3.816 4.665 0 3.137 1.347 4.97 3.816 4.97 1.487 0 3.114-.805 3.59-3.332zm3.62 4.831c0 1-.87 1.5-1.824 1.5-.926 0-1.795-.5-1.795-1.5v-.583c-1.01 1.389-2.694 2.083-4.377 2.083-2.974 0-6.818-2-6.818-7.942 0-5.359 3.48-7.802 6.818-7.802 1.683 0 3.367.722 4.377 1.999V5.696c0-.972.87-1.472 1.823-1.472.926 0 1.796.5 1.796 1.472v19.492zM146.672 11.749c1.74.916.477 3.471-1.318 2.582-.646-.36-2.076-.75-3.086-.75-1.684 0-2.638.612-2.638 1.667 0 1.055.926 1.583 2.385 1.86l1.431.277c2.61.528 4.32 2.028 4.32 4.416 0 2.86-2.637 4.97-6.312 4.97-2.076 0-3.76-.389-5.022-1.221-1.711-1.056-.42-3.86 1.515-2.833.814.528 2.413 1.027 3.45 1.027 1.712 0 2.778-.694 2.778-1.777 0-1.055-.981-1.582-2.412-1.888l-1.487-.305c-2.357-.472-4.265-1.944-4.265-4.47 0-2.555 2.329-4.555 5.976-4.555 2.245 0 3.76.5 4.685 1" transform="translate(-343 -55) translate(343 55)"/>
                <path fill="#EBA847" fill-rule="nonzero" d="M28.962 26.538L13.824 26.538 10.62 19.769z" transform="translate(-343 -55) translate(343 55)"/>
                <path fill="#D69748" fill-rule="nonzero" d="M10.62 19.769L13.824 26.538 14.231 34.222 11.873 27.995 8.906 20.137 1.457 0.408z" transform="translate(-343 -55) translate(343 55)"/>
                <path fill="#F0BE43" fill-rule="nonzero" d="M11.873 27.995L14.231 34.222 10.619 29.06 10.606 29.044z" transform="translate(-343 -55) translate(343 55)"/>
                <g transform="translate(-343 -55) translate(343 55) translate(0 19.875)">
                    <mask id="6l1uw45sob" fill="#fff">
                        <use xlink:href="#vi786u8hka"/>
                    </mask>
                    <path fill="#EBA847" fill-rule="nonzero" d="M8.906 0.262L11.872 8.12 10.606 9.169 0 17.953z" mask="url(#6l1uw45sob)"/>
                </g>
                <path fill="#F0BE43" fill-rule="nonzero" d="M28.962 26.538L10.62 19.769 1.457 0.408z" transform="translate(-343 -55) translate(343 55)"/>
                <g transform="translate(-343 -55) translate(343 55) translate(0 .29)">
                    <mask id="ft4492m5id" fill="#fff">
                        <use xlink:href="#ka879ohr2c"/>
                    </mask>
                    <path fill="#F0BE43" fill-rule="nonzero" d="M1.457 0.118L8.906 19.847 0 37.538z" mask="url(#ft4492m5id)"/>
                </g>
            </g>
        </g>
    </g>
</svg>
